<?xml version="1.0" encoding="UTF-8"?>
<!DOCTYPE svg PUBLIC "-//W3C//DTD SVG 1.1//EN" "http://www.w3.org/Graphics/SVG/1.1/DTD/svg11.dtd">
<!-- Creator: CorelDRAW X6 -->
<svg xmlns="http://www.w3.org/2000/svg" xml:space="preserve" width="1.70666in" height="1.70666in" version="1.1" style="shape-rendering:geometricPrecision; text-rendering:geometricPrecision; image-rendering:optimizeQuality; fill-rule:evenodd; clip-rule:evenodd"
viewBox="0 0 1707 1707"
 xmlns:xlink="http://www.w3.org/1999/xlink">
 <defs>
  <style type="text/css">
   <![CDATA[
    .fil0 {fill:none}
    .fil1 {fill:#07BCBD}
   ]]>
  </style>
 </defs>
 <g id="Layer_x0020_1">
  <metadata id="CorelCorpID_0Corel-Layer"/>
  <rect class="fil0" width="1707" height="1707"/>
  <g id="_386933792">
   <g>
    <g id="b103_soup">
     <path class="fil1" d="M1280 624l-350 0c32,0 57,-26 57,-57 0,-32 -26,-57 -57,-57l-143 0c-32,0 -57,26 -57,57 0,32 26,57 57,57l-350 0c-97,0 -178,87 -194,180l1232 0c-16,-93 -96,-180 -194,-180z"/>
     <path class="fil1" d="M1476 903l0 -16 -1235 0 -3 0 -206 0 0 82 206 0 0 508c0,109 88,197 197,197l844 0c109,0 197,-88 197,-197l0 -492 197 0 0 -82 -197 0z"/>
     <path class="fil1" d="M556 230c6,8 12,15 18,22l16 16c10,10 19,20 27,29 4,5 7,9 9,12 2,4 4,6 5,10 1,4 -2,10 -6,16 -4,6 -11,11 -18,17 9,3 18,4 28,3 10,-1 21,-6 30,-15 9,-10 14,-24 15,-36 1,-13 -1,-24 -4,-34 -6,-20 -15,-37 -25,-52 -5,-7 -11,-15 -16,-21 -4,-5 -9,-11 -12,-16 -15,-21 -26,-41 -30,-63 -4,-23 0,-52 14,-86 -36,8 -68,38 -78,80 -5,21 -4,43 1,63 5,20 15,38 26,54z"/>
     <path class="fil1" d="M769 230c6,8 12,15 18,22l16 16c10,10 19,20 27,29 4,5 7,9 9,12 2,4 4,6 5,10 1,4 -2,10 -6,16 -4,6 -11,11 -18,17 9,3 18,4 28,3 10,-1 21,-6 30,-15 9,-10 14,-24 15,-36 1,-13 -1,-24 -4,-34 -6,-20 -15,-37 -26,-52 -5,-7 -11,-15 -16,-21 -4,-5 -9,-11 -12,-16 -15,-21 -26,-41 -30,-63 -4,-23 0,-52 14,-86 -36,8 -68,38 -78,80 -5,21 -4,43 1,63 6,20 15,38 26,54z"/>
     <path class="fil1" d="M963 230c6,8 12,15 18,22l16 16c10,10 19,20 27,29 4,5 7,9 9,12 2,4 4,6 5,10 1,4 -2,10 -6,16 -4,6 -11,11 -18,17 9,3 18,4 28,3 10,-1 21,-6 30,-15 9,-10 14,-24 15,-36 1,-13 -1,-24 -4,-34 -6,-20 -15,-37 -25,-52 -5,-7 -11,-15 -16,-21 -4,-5 -9,-11 -12,-16 -15,-21 -26,-41 -30,-63 -4,-23 0,-52 14,-86 -36,8 -68,38 -78,80 -5,21 -4,43 1,63 5,20 15,38 26,54z"/>
    </g>
    <g id="Capa_1_128_">
    </g>
   </g>
   <g>
   </g>
   <g>
   </g>
   <g>
   </g>
   <g>
   </g>
   <g>
   </g>
   <g>
   </g>
   <g>
   </g>
   <g>
   </g>
   <g>
   </g>
   <g>
   </g>
   <g>
   </g>
   <g>
   </g>
   <g>
   </g>
   <g>
   </g>
   <g>
   </g>
  </g>
 </g>
</svg>
