<?xml version="1.0" encoding="UTF-8"?>
<!DOCTYPE svg PUBLIC "-//W3C//DTD SVG 1.1//EN" "http://www.w3.org/Graphics/SVG/1.1/DTD/svg11.dtd">
<!-- Creator: CorelDRAW X6 -->
<svg xmlns="http://www.w3.org/2000/svg" xml:space="preserve" width="1.70666in" height="1.70666in" version="1.1" style="shape-rendering:geometricPrecision; text-rendering:geometricPrecision; image-rendering:optimizeQuality; fill-rule:evenodd; clip-rule:evenodd"
viewBox="0 0 1707 1707"
 xmlns:xlink="http://www.w3.org/1999/xlink">
 <defs>
  <style type="text/css">
   <![CDATA[
    .fil0 {fill:none}
    .fil1 {fill:#07BCBD}
   ]]>
  </style>
 </defs>
 <g id="Layer_x0020_1">
  <metadata id="CorelCorpID_0Corel-Layer"/>
  <rect class="fil0" width="1707" height="1707"/>
  <g id="_005-books-stack-of-black-covers.svg">
   <g>
    <g>
     <path class="fil1" d="M1393 200c0,-53 -43,-95 -95,-95l-798 0 0 248 -91 0c-53,0 -95,43 -95,95l0 828c0,2 0,3 0,5 0,60 39,104 92,104l1 0 0 109c0,2 0,3 0,5 0,60 39,104 92,104l801 0 0 -18 0 -18 -801 0c-39,0 -57,-34 -57,-68 0,-2 0,-3 0,-5 2,-32 19,-63 56,-63l801 0 0 -18 0 -18 0 -260 1 0c54,0 91,-42 91,-102 0,-2 0,-3 0,-5l1 0 0 -829 0 0zm-186 1077l0 72 -800 0 -1 0c-39,0 -57,-34 -57,-68 0,-2 0,-3 0,-5 2,-32 19,-63 56,-63l1 0 800 0 0 63zm94 -175l-1 0 -93 0 -707 0 0 -74 0 -65 707 0 93 0 1 0c38,0 56,32 58,65 0,2 0,3 0,5 0,34 -18,69 -58,69z"/>
    </g>
   </g>
   <g>
   </g>
   <g>
   </g>
   <g>
   </g>
   <g>
   </g>
   <g>
   </g>
   <g>
   </g>
   <g>
   </g>
   <g>
   </g>
   <g>
   </g>
   <g>
   </g>
   <g>
   </g>
   <g>
   </g>
   <g>
   </g>
   <g>
   </g>
   <g>
   </g>
  </g>
 </g>
</svg>
