<?xml version="1.0" encoding="UTF-8"?>
<!DOCTYPE svg PUBLIC "-//W3C//DTD SVG 1.1//EN" "http://www.w3.org/Graphics/SVG/1.1/DTD/svg11.dtd">
<!-- Creator: CorelDRAW X6 -->
<svg xmlns="http://www.w3.org/2000/svg" xml:space="preserve" width="1.70666in" height="1.70666in" version="1.1" style="shape-rendering:geometricPrecision; text-rendering:geometricPrecision; image-rendering:optimizeQuality; fill-rule:evenodd; clip-rule:evenodd"
viewBox="0 0 1707 1707"
 xmlns:xlink="http://www.w3.org/1999/xlink">
 <defs>
  <style type="text/css">
   <![CDATA[
    .fil0 {fill:none}
    .fil1 {fill:#07BCBD}
   ]]>
  </style>
 </defs>
 <g id="Layer_x0020_1">
  <metadata id="CorelCorpID_0Corel-Layer"/>
  <rect class="fil0" width="1707" height="1707"/>
  <g id="_002-glass-and-bottle-of-wine.svg">
   <g>
    <path class="fil1" d="M821 860c0,-67 -17,-132 -48,-188l-8 -13 -471 0 -7 13c-32,56 -48,120 -48,188 0,171 109,313 250,336l0 399c-81,3 -142,16 -142,30 0,17 83,31 185,31 102,0 185,-14 185,-31 0,-15 -61,-27 -142,-30l0 -400c140,-25 247,-166 247,-336zm-291 287c-132,0 -239,-129 -239,-288 0,-53 12,-104 34,-149l410 0c23,45 35,96 35,149 0,159 -107,288 -239,288zm790 -928l-207 0 0 -180 207 0 0 180zm0 223l0 -167 -207 0 0 167c-87,39 -149,127 -149,230l0 164 0 523 0 307 504 0 0 -307 0 -523 0 -164c0,-102 -61,-190 -149,-230zm104 971l-411 0 0 -493 411 0 0 493zm-677 -547c0,0 -11,261 -214,261 -203,0 -231,-261 -231,-261l445 0z"/>
   </g>
   <g>
   </g>
   <g>
   </g>
   <g>
   </g>
   <g>
   </g>
   <g>
   </g>
   <g>
   </g>
   <g>
   </g>
   <g>
   </g>
   <g>
   </g>
   <g>
   </g>
   <g>
   </g>
   <g>
   </g>
   <g>
   </g>
   <g>
   </g>
   <g>
   </g>
  </g>
 </g>
</svg>
