<?xml version="1.0" encoding="UTF-8"?>
<!DOCTYPE svg PUBLIC "-//W3C//DTD SVG 1.1//EN" "http://www.w3.org/Graphics/SVG/1.1/DTD/svg11.dtd">
<!-- Creator: CorelDRAW X6 -->
<svg xmlns="http://www.w3.org/2000/svg" xml:space="preserve" width="1.70666in" height="1.70666in" version="1.1" style="shape-rendering:geometricPrecision; text-rendering:geometricPrecision; image-rendering:optimizeQuality; fill-rule:evenodd; clip-rule:evenodd"
viewBox="0 0 1707 1707"
 xmlns:xlink="http://www.w3.org/1999/xlink">
 <defs>
  <style type="text/css">
   <![CDATA[
    .fil0 {fill:none}
    .fil1 {fill:#07BCBD}
   ]]>
  </style>
 </defs>
 <g id="Layer_x0020_1">
  <metadata id="CorelCorpID_0Corel-Layer"/>
  <rect class="fil0" width="1707" height="1707"/>
  <g id="_003-open-carton-box.svg">
   <g>
    <path class="fil1" d="M66 454c-23,-2 -30,12 -15,30l261 310c15,18 46,32 69,31l344 -3 -404 -352 -255 -16z"/>
    <path class="fil1" d="M1643 410l-544 -167c-22,-7 -53,1 -70,18l-96 98c-2,3 -4,5 -6,8l-103 -127c-8,-22 -33,-37 -56,-34l-484 58c-23,3 -33,22 -23,42l60 165 615 -68c2,1 4,2 6,3l477 209 -694 207 170 255c12,20 40,30 62,23l658 -213c22,-7 27,-27 11,-44l-143 -222c8,-3 14,-7 20,-13l151 -156c16,-17 11,-36 -11,-42z"/>
    <path class="fil1" d="M936 1161c-22,7 -50,-3 -62,-23l-159 -265 -362 0 0 117c0,17 9,41 19,54l371 444c11,13 32,18 48,12l574 -229c16,-6 30,-25 32,-41l25 -227 -485 158z"/>
   </g>
   <g>
   </g>
   <g>
   </g>
   <g>
   </g>
   <g>
   </g>
   <g>
   </g>
   <g>
   </g>
   <g>
   </g>
   <g>
   </g>
   <g>
   </g>
   <g>
   </g>
   <g>
   </g>
   <g>
   </g>
   <g>
   </g>
   <g>
   </g>
   <g>
   </g>
  </g>
 </g>
</svg>
