<?xml version="1.0" encoding="UTF-8"?>
<!DOCTYPE svg PUBLIC "-//W3C//DTD SVG 1.1//EN" "http://www.w3.org/Graphics/SVG/1.1/DTD/svg11.dtd">
<!-- Creator: CorelDRAW X6 -->
<svg xmlns="http://www.w3.org/2000/svg" xml:space="preserve" width="1.70666in" height="1.70666in" version="1.1" style="shape-rendering:geometricPrecision; text-rendering:geometricPrecision; image-rendering:optimizeQuality; fill-rule:evenodd; clip-rule:evenodd"
viewBox="0 0 1707 1707"
 xmlns:xlink="http://www.w3.org/1999/xlink">
 <defs>
  <style type="text/css">
   <![CDATA[
    .fil0 {fill:none}
    .fil1 {fill:#07BCBD}
   ]]>
  </style>
 </defs>
 <g id="Layer_x0020_1">
  <metadata id="CorelCorpID_0Corel-Layer"/>
  <rect class="fil0" width="1707" height="1707"/>
  <g id="_004-wire.svg">
   <g>
    <g>
     <path class="fil1" d="M1508 1520l-71 0 0 -125c29,-9 51,-36 51,-68 0,-18 -7,-35 -18,-47 11,-13 18,-29 18,-47 0,-18 -7,-35 -18,-47 11,-13 18,-29 18,-47 0,-18 -7,-35 -18,-47 11,-13 18,-29 18,-47 0,-18 -7,-35 -18,-47 11,-13 18,-29 18,-47 0,-18 -7,-35 -18,-47 11,-13 18,-29 18,-47 0,-18 -7,-35 -18,-47 11,-13 18,-29 18,-47 0,-18 -7,-35 -18,-47 11,-13 18,-29 18,-47 0,-18 -7,-35 -18,-47 11,-13 18,-29 18,-47 0,-18 -7,-35 -18,-47 11,-13 18,-29 18,-47 0,-18 -7,-35 -18,-47 11,-13 18,-29 18,-47 0,-32 -21,-59 -51,-68l0 -14c0,-13 -11,-24 -24,-24 -13,0 -24,11 -24,24l0 11 -720 0c-13,0 -24,11 -24,24 0,13 11,24 24,24l747 0c13,0 24,11 24,24 0,13 -11,24 -24,24l-954 0c-13,0 -24,-11 -24,-24 0,-13 11,-24 24,-24l106 0c13,0 24,-11 24,-24 0,-13 -11,-24 -24,-24l-79 0 0 -122 900 0 0 9c0,13 11,24 24,24 13,0 24,-11 24,-24l0 -9 71 0c39,0 71,-32 71,-71 0,-39 -32,-71 -71,-71l-1137 0c-39,0 -71,32 -71,71 0,39 32,71 71,71l71 0 0 125c-29,9 -51,36 -51,68 0,18 7,35 18,47 -11,13 -18,29 -18,47 0,18 7,35 18,47 -11,13 -18,29 -18,47 0,18 7,35 18,47 -11,13 -18,29 -18,47 0,18 7,35 18,47 -11,13 -18,29 -18,47 0,18 7,35 18,47 -11,13 -18,29 -18,47 0,18 7,35 18,47 -11,13 -18,29 -18,47 0,8 1,16 4,24l-198 0c-39,0 -71,32 -71,71 0,39 32,71 71,71l198 0c-3,7 -4,15 -4,24 0,18 7,35 18,47 -11,13 -18,29 -18,47 0,18 7,35 18,47 -11,13 -18,29 -18,47 0,32 21,59 51,68l0 125 -71 0c-39,0 -71,32 -71,71 0,39 32,71 71,71l1137 0c39,0 71,-32 71,-71 0,-39 -32,-71 -71,-71zm-1137 -1380c-13,0 -24,-11 -24,-24 0,-13 11,-24 24,-24l1137 0c13,0 24,11 24,24 0,13 -11,24 -24,24l-1137 0zm1045 1021l-954 0c-13,0 -24,-11 -24,-24 0,-13 11,-24 24,-24l954 0c13,0 24,11 24,24 0,13 -11,24 -24,24zm24 71c0,13 -11,24 -24,24l-954 0c-13,0 -24,-11 -24,-24 0,-13 11,-24 24,-24l954 0c13,0 24,11 24,24zm-977 -781l954 0c13,0 24,11 24,24 0,13 -11,24 -24,24l-954 0c-13,0 -24,-11 -24,-24 0,-13 11,-24 24,-24zm0 95l954 0c13,0 24,11 24,24 0,13 -11,24 -24,24l-954 0c-13,0 -24,-11 -24,-24 0,-13 11,-24 24,-24zm0 95l954 0c13,0 24,11 24,24 0,13 -11,24 -24,24l-954 0c-13,0 -24,-11 -24,-24 0,-13 11,-24 24,-24zm0 95l954 0c13,0 24,11 24,24 0,13 -11,24 -24,24l-954 0c-13,0 -24,-11 -24,-24 0,-13 11,-24 24,-24zm0 95l954 0c13,0 24,11 24,24 0,13 -11,24 -24,24l-954 0c-13,0 -24,-11 -24,-24 0,-13 11,-24 24,-24zm0 95l954 0c13,0 24,11 24,24 0,13 -11,24 -24,24l-954 0c-13,0 -24,-11 -24,-24 0,-13 11,-24 24,-24zm-265 142c-13,0 -24,-11 -24,-24 0,-13 11,-24 24,-24l1219 0c13,0 24,11 24,24 0,13 -11,24 -24,24l-1219 0zm242 260c0,-13 11,-24 24,-24l954 0c13,0 24,11 24,24 0,13 -11,24 -24,24l-139 0c-13,0 -24,11 -24,24 0,13 11,24 24,24l113 0 0 122 -900 0 0 -122 685 0c13,0 24,-11 24,-24 0,-13 -11,-24 -24,-24l-712 0c-13,0 -24,-11 -24,-24zm1069 287l-1137 0c-13,0 -24,-11 -24,-24 0,-13 11,-24 24,-24l1137 0c13,0 24,11 24,24 0,13 -11,24 -24,24z"/>
    </g>
   </g>
   <g>
   </g>
   <g>
   </g>
   <g>
   </g>
   <g>
   </g>
   <g>
   </g>
   <g>
   </g>
   <g>
   </g>
   <g>
   </g>
   <g>
   </g>
   <g>
   </g>
   <g>
   </g>
   <g>
   </g>
   <g>
   </g>
   <g>
   </g>
   <g>
   </g>
  </g>
 </g>
</svg>
