<?xml version="1.0" encoding="UTF-8"?>
<!DOCTYPE svg PUBLIC "-//W3C//DTD SVG 1.1//EN" "http://www.w3.org/Graphics/SVG/1.1/DTD/svg11.dtd">
<!-- Creator: CorelDRAW X6 -->
<svg xmlns="http://www.w3.org/2000/svg" xml:space="preserve" width="1.70666in" height="1.70666in" version="1.1" style="shape-rendering:geometricPrecision; text-rendering:geometricPrecision; image-rendering:optimizeQuality; fill-rule:evenodd; clip-rule:evenodd"
viewBox="0 0 1707 1707"
 xmlns:xlink="http://www.w3.org/1999/xlink">
 <defs>
  <style type="text/css">
   <![CDATA[
    .fil0 {fill:none}
    .fil1 {fill:#07BCBD}
   ]]>
  </style>
 </defs>
 <g id="Layer_x0020_1">
  <metadata id="CorelCorpID_0Corel-Layer"/>
  <rect class="fil0" width="1707" height="1707"/>
  <g id="_006-desktop-computer.svg">
   <g>
    <path class="fil1" d="M1557 593l-304 0 0 -47 304 0 0 47zm0 31l-304 0 0 47 304 0 0 -47zm0 -213l-303 0 0 103 303 0 0 -103zm97 -111l0 1108c0,17 -14,30 -30,30l-437 0c-17,0 -30,-14 -30,-30l0 -1108c0,-17 13,-30 30,-30l437 0c17,0 30,14 30,30zm-60 30l-377 0 0 1048 377 0 0 -1048zm-36 371l-304 0 0 47 304 0 0 -47zm-49 350c0,54 -44,98 -98,98 -54,0 -98,-44 -98,-98 0,-54 44,-98 98,-98 54,0 98,44 98,98zm-35 0c0,-34 -28,-62 -62,-62 -35,0 -62,28 -62,62 0,34 28,62 62,62 34,0 62,-28 62,-62zm-399 -569l0 628c0,38 -30,68 -68,68l-339 0c0,0 -19,137 103,137l0 69 -103 0 -206 0 -103 0 0 -68c118,0 103,-137 103,-137l-339 0c-38,0 -68,-31 -68,-68l0 -628c0,-38 31,-68 68,-68l884 0c38,0 68,31 68,68zm-447 613c0,-32 -26,-59 -59,-59 -33,0 -59,26 -59,59 0,32 26,59 59,59 33,0 59,-26 59,-59zm374 -608l-874 0 0 529 874 0 0 0c0,0 0,-529 0,-529zm-432 572c-20,0 -37,16 -37,37 0,20 16,37 37,37 20,0 37,-16 37,-37 0,-20 -16,-37 -37,-37z"/>
   </g>
   <g>
   </g>
   <g>
   </g>
   <g>
   </g>
   <g>
   </g>
   <g>
   </g>
   <g>
   </g>
   <g>
   </g>
   <g>
   </g>
   <g>
   </g>
   <g>
   </g>
   <g>
   </g>
   <g>
   </g>
   <g>
   </g>
   <g>
   </g>
   <g>
   </g>
  </g>
 </g>
</svg>
