<?xml version="1.0" encoding="UTF-8"?>
<!DOCTYPE svg PUBLIC "-//W3C//DTD SVG 1.1//EN" "http://www.w3.org/Graphics/SVG/1.1/DTD/svg11.dtd">
<!-- Creator: CorelDRAW X6 -->
<svg xmlns="http://www.w3.org/2000/svg" xml:space="preserve" width="1.70666in" height="1.70666in" version="1.1" style="shape-rendering:geometricPrecision; text-rendering:geometricPrecision; image-rendering:optimizeQuality; fill-rule:evenodd; clip-rule:evenodd"
viewBox="0 0 1707 1707"
 xmlns:xlink="http://www.w3.org/1999/xlink">
 <defs>
  <style type="text/css">
   <![CDATA[
    .fil0 {fill:none}
    .fil1 {fill:#07BCBD}
   ]]>
  </style>
 </defs>
 <g id="Layer_x0020_1">
  <metadata id="CorelCorpID_0Corel-Layer"/>
  <rect class="fil0" width="1707" height="1707"/>
  <g id="_007-office-chair.svg">
   <g>
    <g id="Layer_1_123_">
     <path class="fil1" d="M1453 1535l0 -36c0,-15 -9,-29 -22,-35 -9,-4 -210,-98 -538,-105l0 -134c23,-14 39,-39 39,-68l0 -43 278 0c0,0 1,0 1,0 43,0 78,-35 78,-78 0,-7 -1,-13 -2,-19 68,-23 104,-43 108,-45 12,-7 19,-20 19,-34l0 -215 37 0c22,0 39,-18 39,-39 0,-22 -18,-39 -39,-39l-153 0c-22,0 -39,18 -39,39 0,22 18,39 39,39l37 0 0 190c-19,9 -53,23 -100,37l-27 -27c-18,-18 -44,-26 -69,-22 -1,0 -79,13 -209,17l0 -69c143,-9 215,-40 224,-44 31,-14 49,-46 46,-79l-60 -597c-3,-29 -21,-53 -48,-64 -9,-4 -90,-36 -241,-36 -151,0 -232,32 -241,36 -26,11 -45,36 -48,64l-60 597c-3,34 15,65 46,79 9,4 82,35 224,44l0 69c-130,-4 -208,-17 -209,-17 -25,-4 -51,4 -69,22l-27 27c-47,-14 -81,-28 -100,-37l0 -190 37 0c22,0 39,-18 39,-39 0,-22 -18,-39 -39,-39l-153 0c-22,0 -39,18 -39,39 0,22 18,39 39,39l37 0 0 215c0,14 7,27 19,34 3,2 39,23 109,45 -4,16 -3,33 3,49 12,29 41,48 72,48l278 0 0 43c0,29 16,54 39,68l0 134c-329,7 -529,101 -538,105 -14,7 -22,20 -22,35l0 36c-22,13 -37,37 -37,65 0,42 34,76 76,76 42,0 76,-34 76,-76 0,-28 -15,-52 -37,-65l0 -10c59,-23 232,-82 482,-88l0 98c-22,13 -37,37 -37,65 0,42 34,76 76,76 42,0 76,-34 76,-76 0,-28 -15,-52 -37,-65l0 -98c249,6 423,65 482,88l0 10c-22,13 -37,37 -37,65 0,42 34,76 76,76 42,0 76,-34 76,-76 0,-28 -15,-52 -37,-65zm-725 -1279c2,-1 44,-18 125,-18 81,0 123,18 125,18 10,4 15,16 10,26 -3,7 -10,12 -18,12 -3,0 -5,-1 -8,-2 0,0 -38,-15 -110,-15 -72,0 -110,15 -110,15 -10,4 -21,-1 -26,-11 -4,-10 1,-21 10,-26zm-20 119c2,-1 51,-21 145,-21 94,0 143,20 145,21 10,4 15,16 11,26 -3,7 -11,12 -18,12 -3,0 -5,0 -8,-2 0,0 -45,-18 -130,-18 -85,0 -129,18 -130,18 -10,4 -21,-1 -26,-11 -4,-10 0,-21 10,-26zm145 134c-98,0 -149,21 -149,21 -10,4 -21,-1 -26,-11 -4,-10 1,-21 10,-26 2,-1 58,-24 164,-24 107,0 162,23 165,24 10,4 15,16 10,26 -3,7 -10,12 -18,12 -3,0 -5,0 -8,-2 0,0 -52,-21 -149,-21z"/>
    </g>
   </g>
   <g>
   </g>
   <g>
   </g>
   <g>
   </g>
   <g>
   </g>
   <g>
   </g>
   <g>
   </g>
   <g>
   </g>
   <g>
   </g>
   <g>
   </g>
   <g>
   </g>
   <g>
   </g>
   <g>
   </g>
   <g>
   </g>
   <g>
   </g>
   <g>
   </g>
  </g>
 </g>
</svg>
