<?xml version="1.0" encoding="UTF-8"?>
<!DOCTYPE svg PUBLIC "-//W3C//DTD SVG 1.1//EN" "http://www.w3.org/Graphics/SVG/1.1/DTD/svg11.dtd">
<!-- Creator: CorelDRAW X6 -->
<svg xmlns="http://www.w3.org/2000/svg" xml:space="preserve" width="1.70666in" height="1.70666in" version="1.1" style="shape-rendering:geometricPrecision; text-rendering:geometricPrecision; image-rendering:optimizeQuality; fill-rule:evenodd; clip-rule:evenodd"
viewBox="0 0 1707 1707"
 xmlns:xlink="http://www.w3.org/1999/xlink">
 <defs>
  <style type="text/css">
   <![CDATA[
    .fil0 {fill:none}
    .fil1 {fill:#07BCBD}
   ]]>
  </style>
 </defs>
 <g id="Layer_x0020_1">
  <metadata id="CorelCorpID_0Corel-Layer"/>
  <path class="fil0" d="M0 0l1707 0 0 1707 -1707 0 0 -1707zm699 1407c3,6 8,9 15,10l21 1c2,1 4,1 6,1l29 0 11 0c1,0 3,0 4,0l40 0c2,0 3,0 5,-1l6 0c7,0 13,-4 15,-10 7,-2 13,-8 13,-16 0,-9 -7,-17 -17,-17 -54,0 -107,0 -161,0 -9,0 -17,7 -17,17 0,9 7,17 17,17l12 0z"/>
  <g id="_008-bucket.svg">
   <g id="_023---Bucket-of-Fish">
    <path id="Shape" class="fil1" d="M853 162c38,0 73,-47 85,-111l-65 24c-12,4 -24,4 -36,0l-65 -23c9,63 44,110 82,110z"/>
    <path id="Shape_0" class="fil1" d="M853 220c-27,19 -53,41 -76,65 12,17 22,35 31,53 7,16 12,32 15,49l169 0c-17,-66 -82,-129 -139,-167z"/>
    <path id="Shape_1" class="fil1" d="M1079 220c-27,19 -53,41 -76,65 12,17 22,35 31,53 7,16 12,32 15,49l169 0c-20,-79 -111,-147 -139,-167z"/>
    <path id="Shape_2" class="fil1" d="M1079 162c38,0 73,-47 85,-113 -96,35 -67,36 -166,0 9,66 44,113 82,113z"/>
    <path id="Shape_3" class="fil1" d="M628 162c38,0 73,-47 85,-111l-65 24c-12,4 -24,4 -36,0l-65 -23c9,64 44,110 82,110z"/>
    <path id="Shape_4" class="fil1" d="M628 220c-31,21 -119,89 -138,167l275 0c-16,-66 -81,-129 -138,-167l0 0z"/>
    <path id="Shape_5" class="fil1" d="M345 501c0,43 -32,79 -74,85l18 198 282 0c27,-36 68,-56 113,-56l339 0c44,0 86,21 113,56l282 0 18 -198c-38,-5 -68,-35 -73,-73 -5,-38 16,-75 52,-89 -18,-10 70,-7 -1098,-7 -9,0 -18,2 -26,6 32,13 54,44 54,78z"/>
    <path id="Shape_6" class="fil1" d="M1023 1009l-339 0c-44,0 -86,-21 -113,-56l-267 0 60 654c3,29 27,51 56,51l864 0c29,0 54,-22 56,-51l60 -654 -267 0c-27,36 -68,56 -113,56l0 0z"/>
    <path id="Shape_7" class="fil1" d="M1502 472l-56 0c-16,0 -28,13 -28,28 0,16 13,28 28,28l56 0c16,0 28,13 28,28l0 254c0,16 -13,28 -28,28 -426,0 -395,0 -400,0 -12,-34 -44,-56 -80,-56l-339 0c-22,0 -44,9 -60,25l-20 32c-5,0 40,0 -400,0 -16,0 -28,-13 -28,-28l0 -254c0,-16 13,-28 28,-28l56 0c16,0 28,-13 28,-28 0,-16 -13,-28 -28,-28l-56 0c-47,0 -85,38 -85,85l0 254c0,47 38,85 85,85l400 0c12,34 44,56 80,56l339 0c22,0 44,-9 60,-25l20 -32 400 0c47,0 85,-38 85,-85l0 -254c0,-47 -38,-85 -85,-85z"/>
   </g>
  </g>
 </g>
</svg>
