<?xml version="1.0" encoding="UTF-8"?>
<!DOCTYPE svg PUBLIC "-//W3C//DTD SVG 1.1//EN" "http://www.w3.org/Graphics/SVG/1.1/DTD/svg11.dtd">
<!-- Creator: CorelDRAW X6 -->
<svg xmlns="http://www.w3.org/2000/svg" xml:space="preserve" width="1.70666in" height="1.70666in" version="1.1" style="shape-rendering:geometricPrecision; text-rendering:geometricPrecision; image-rendering:optimizeQuality; fill-rule:evenodd; clip-rule:evenodd"
viewBox="0 0 1707 1707"
 xmlns:xlink="http://www.w3.org/1999/xlink">
 <defs>
  <style type="text/css">
   <![CDATA[
    .fil0 {fill:none}
    .fil1 {fill:#07BCBD}
   ]]>
  </style>
 </defs>
 <g id="Layer_x0020_1">
  <metadata id="CorelCorpID_0Corel-Layer"/>
  <path class="fil0" d="M0 0l1707 0 0 1707 -1707 0 0 -1707zm699 1407c3,6 8,9 15,10l21 1c2,1 4,1 6,1l29 0 11 0c1,0 3,0 4,0l40 0c2,0 3,0 5,-1l6 0c7,0 13,-4 15,-10 7,-2 13,-8 13,-16 0,-9 -7,-17 -17,-17 -54,0 -107,0 -161,0 -9,0 -17,7 -17,17 0,9 7,17 17,17l12 0z"/>
  <g id="_015-beam.svg">
   <g>
    <g>
     <g>
      <path class="fil1" d="M1644 247l0 -158c0,0 0,-1 0,-1 0,-3 -1,-6 -2,-9l0 0c0,0 0,0 0,-1 -1,-3 -3,-5 -5,-7 -1,-1 -1,-1 -2,-2 -2,-1 -4,-3 -5,-4 -1,0 -2,-1 -3,-1 -3,-1 -6,-2 -9,-2l-843 0c-7,0 -14,3 -19,8l-685 685 0 0c-2,2 -4,5 -5,8 -1,3 -2,6 -2,9 0,1 0,1 0,2l0 158c0,15 12,26 26,26l198 0c65,0 118,53 119,119l0 29 -335 335c-5,5 -8,12 -8,19l0 158c0,15 12,26 26,26l843 0c4,0 7,-1 10,-2 0,0 1,0 1,-1 3,-1 5,-3 8,-5l0 0 526 -553 158 -158c5,-5 8,-12 8,-19l0 -158c0,0 0,-1 0,-1 0,-3 -1,-6 -2,-9l0 0c0,0 0,0 0,-1 -3,-5 -7,-10 -12,-12 -1,0 -2,-1 -3,-1 -3,-1 -6,-2 -9,-2l-198 0c-2,0 -4,1 -7,1 -2,-1 -4,-1 -7,-1 -61,0 -113,-47 -118,-109l347 -347c5,-5 8,-12 8,-19zm-858 -132l768 0 -632 632 -768 0 632 -632zm-380 1065l0 134c0,65 -53,118 -119,119l-134 0 252 -253zm500 411l-790 0 0 -105 171 0c95,0 171,-77 171,-171l0 -237c0,-95 -77,-171 -171,-171l-171 0 0 -105 790 0 0 105 -171 0c-95,0 -171,77 -171,171l0 237c0,95 77,171 171,171l171 0 0 105zm685 -696l-151 151 -481 505 0 -82 519 -545 113 -113 0 84 0 0zm-184 -121c2,0 4,-1 7,-1 2,1 4,1 7,1l134 0 -114 114 -519 545 -186 0c-65,0 -118,-53 -119,-119l0 -237c0,-65 53,-118 119,-119l198 0c7,0 14,-3 19,-8l293 -293c23,70 89,117 162,117zm184 -538l-348 348 0 0 -284 284 0 -84 632 -632 0 84z"/>
      <path class="fil1" d="M732 1302c-10,-4 -21,-2 -29,6 -5,5 -8,12 -8,19 0,15 12,26 26,26 15,0 26,-12 26,-26 0,-11 -6,-20 -16,-24z"/>
      <path class="fil1" d="M833 1190c-9,-2 -19,1 -25,7l0 0 -26 28c-10,11 -10,27 1,37 11,10 27,10 37,-1l26 -28c7,-7 9,-17 6,-26 -3,-9 -10,-16 -19,-18z"/>
      <path class="fil1" d="M913 1087l-26 28c-10,11 -10,27 1,37 11,10 27,10 37,-1l26 -28c10,-11 10,-27 -1,-37 -11,-10 -27,-10 -37,1z"/>
      <path class="fil1" d="M1019 977l-26 28c-7,8 -9,19 -5,29 4,10 14,16 24,16 7,0 14,-3 19,-8l26 -28c10,-11 10,-27 -1,-37 -11,-10 -27,-10 -37,1z"/>
      <path class="fil1" d="M1149 859c-9,-2 -19,1 -25,7l-26 28c-7,8 -9,19 -5,29 4,10 14,16 24,16 7,0 14,-3 19,-8l26 -28c7,-7 9,-17 6,-26 -3,-9 -10,-16 -19,-18z"/>
      <path class="fil1" d="M1212 777c-10,4 -16,14 -16,24 0,7 3,14 8,18 5,5 12,8 19,8 7,0 14,-3 19,-8 5,-5 8,-12 8,-18 0,-7 -3,-14 -8,-19 -8,-8 -19,-10 -29,-6z"/>
     </g>
    </g>
   </g>
   <g>
   </g>
   <g>
   </g>
   <g>
   </g>
   <g>
   </g>
   <g>
   </g>
   <g>
   </g>
   <g>
   </g>
   <g>
   </g>
   <g>
   </g>
   <g>
   </g>
   <g>
   </g>
   <g>
   </g>
   <g>
   </g>
   <g>
   </g>
   <g>
   </g>
  </g>
 </g>
</svg>
