<?xml version="1.0" encoding="UTF-8"?>
<!DOCTYPE svg PUBLIC "-//W3C//DTD SVG 1.1//EN" "http://www.w3.org/Graphics/SVG/1.1/DTD/svg11.dtd">
<!-- Creator: CorelDRAW X6 -->
<svg xmlns="http://www.w3.org/2000/svg" xml:space="preserve" width="1.70666in" height="1.70666in" version="1.1" style="shape-rendering:geometricPrecision; text-rendering:geometricPrecision; image-rendering:optimizeQuality; fill-rule:evenodd; clip-rule:evenodd"
viewBox="0 0 1707 1707"
 xmlns:xlink="http://www.w3.org/1999/xlink">
 <defs>
  <style type="text/css">
   <![CDATA[
    .fil0 {fill:none}
    .fil1 {fill:#07BCBD}
   ]]>
  </style>
 </defs>
 <g id="Layer_x0020_1">
  <metadata id="CorelCorpID_0Corel-Layer"/>
  <path class="fil0" d="M0 0l1707 0 0 1707 -1707 0 0 -1707zm699 1407c3,6 8,9 15,10l21 1c2,1 4,1 6,1l29 0 11 0c1,0 3,0 4,0l40 0c2,0 3,0 5,-1l6 0c7,0 13,-4 15,-10 7,-2 13,-8 13,-16 0,-9 -7,-17 -17,-17 -54,0 -107,0 -161,0 -9,0 -17,7 -17,17 0,9 7,17 17,17l12 0z"/>
  <g id="_014-rake.svg">
   <path class="fil1" d="M1144 85c-10,0 -18,8 -18,18l0 58 -79 212c-10,-4 -20,-7 -31,-10l47 -194c0,-1 0,-3 0,-4l0 -61c0,-10 -8,-18 -18,-18 -10,0 -18,8 -18,18l0 59 -46 192c-12,-2 -25,-5 -38,-6l24 -182c0,-1 0,-2 0,-2l0 -61c0,-10 -8,-18 -18,-18 -10,0 -18,8 -18,18l0 60 -24 181c-13,-1 -26,-2 -39,-2l0 -239c0,-10 -8,-18 -18,-18 -10,0 -18,8 -18,18l0 239c-13,0 -26,1 -39,2l-24 -181 0 -60c0,-10 -8,-18 -18,-18 -10,0 -18,8 -18,18l0 61c0,1 0,2 0,2l24 182c-13,2 -26,4 -38,6l-46 -192 0 -59c0,-10 -8,-18 -18,-18 -10,0 -18,8 -18,18l0 61c0,1 0,3 0,4l47 194c-11,3 -21,7 -31,10l-79 -212 0 -58c0,-10 -8,-18 -18,-18 -10,0 -18,8 -18,18l0 61c0,2 0,4 1,6l135 362c1,3 2,4 4,6 0,0 114,118 114,118l0 912c0,30 24,54 54,54 30,0 54,-24 54,-54l0 -912 114 -117c2,-3 3,-3 4,-6l135 -362c1,-2 1,-4 1,-6l0 -61c0,-10 -8,-18 -18,-18zm-204 297c12,2 23,3 34,6l-16 68c-9,-2 -18,-3 -27,-3l9 -70zm-35 -4l-10 73c-5,0 -10,0 -15,0l-10 0 0 -74c12,0 23,1 34,2zm-69 -2l0 74 -10 0c-5,0 -10,0 -15,0l-10 -73c11,-1 23,-1 34,-2zm-69 5l9 70c-9,1 -18,2 -27,3l-16 -68c11,-2 22,-4 34,-6zm-68 14l17 70c-6,3 -12,7 -17,12l-27 -72c8,-3 17,-6 27,-9zm155 1191c-10,0 -19,-9 -19,-19l0 -789 38 0 0 789c0,10 -9,19 -19,19zm24 -951c-3,3 -5,8 -5,12l0 96 -38 0 0 -96c0,-5 -2,-9 -5,-12l-114 -117c4,-25 30,-33 110,-33l28 0 28 0c80,0 106,7 110,33l-114 117zm131 -158c-5,-5 -11,-8 -17,-12l17 -70c10,3 19,6 27,9l-27 72z"/>
   <g>
   </g>
   <g>
   </g>
   <g>
   </g>
   <g>
   </g>
   <g>
   </g>
   <g>
   </g>
   <g>
   </g>
   <g>
   </g>
   <g>
   </g>
   <g>
   </g>
   <g>
   </g>
   <g>
   </g>
   <g>
   </g>
   <g>
   </g>
   <g>
   </g>
  </g>
 </g>
</svg>
