<?xml version="1.0" encoding="UTF-8"?>
<!DOCTYPE svg PUBLIC "-//W3C//DTD SVG 1.1//EN" "http://www.w3.org/Graphics/SVG/1.1/DTD/svg11.dtd">
<!-- Creator: CorelDRAW X6 -->
<svg xmlns="http://www.w3.org/2000/svg" xml:space="preserve" width="1.70666in" height="1.70666in" version="1.1" style="shape-rendering:geometricPrecision; text-rendering:geometricPrecision; image-rendering:optimizeQuality; fill-rule:evenodd; clip-rule:evenodd"
viewBox="0 0 1707 1707"
 xmlns:xlink="http://www.w3.org/1999/xlink">
 <defs>
  <style type="text/css">
   <![CDATA[
    .fil0 {fill:none}
    .fil1 {fill:#07BCBD}
   ]]>
  </style>
 </defs>
 <g id="Layer_x0020_1">
  <metadata id="CorelCorpID_0Corel-Layer"/>
  <path class="fil0" d="M0 0l1707 0 0 1707 -1707 0 0 -1707zm699 1407c3,6 8,9 15,10l21 1c2,1 4,1 6,1l29 0 11 0c1,0 3,0 4,0l40 0c2,0 3,0 5,-1l6 0c7,0 13,-4 15,-10 7,-2 13,-8 13,-16 0,-9 -7,-17 -17,-17 -54,0 -107,0 -161,0 -9,0 -17,7 -17,17 0,9 7,17 17,17l12 0z"/>
  <g id="_009-wine-bottle-in-bucket-with-two-glasses.svg">
   <g>
    <g>
     <path class="fil1" d="M645 1362c10,2 21,4 32,4 11,0 22,-1 32,-4 2,-1 4,-2 7,-2l-4 -30c-11,3 -22,4 -34,4 -49,0 -89,-23 -119,-86 -3,-6 -6,-13 -9,-21 -36,-92 -55,-232 -55,-434l139 0c2,-11 6,-22 11,-31l-161 0 -19 0 -405 0 0 11c0,372 57,561 180,588 10,2 21,4 32,4 11,0 22,-1 32,-4 94,-21 149,-137 170,-357 21,220 76,336 170,357zm-246 -135c-3,8 -6,15 -9,21 -29,63 -68,86 -117,86 -49,0 -89,-23 -119,-86 -3,-6 -6,-13 -9,-21 -36,-92 -55,-232 -55,-434l364 0c-1,202 -19,341 -55,434z"/>
     <path class="fil1" d="M678 1304c10,0 20,-2 30,-6l-40 -284 -130 0c19,227 81,290 141,290z"/>
     <path class="fil1" d="M565 1657l194 0 -7 -48 -42 0 0 -221c-11,2 -21,3 -32,3 -11,0 -22,-1 -32,-3l0 221 -80 0c-11,0 -20,7 -20,15l0 18c0,8 9,15 20,15z"/>
     <path class="fil1" d="M273 1304c60,0 117,-56 141,-290l-282 0c19,227 81,290 141,290z"/>
     <path class="fil1" d="M272 1391c-11,0 -22,-1 -32,-3l0 221 -80 0c-11,0 -20,7 -20,15l0 18c0,8 9,15 20,15l219 0c11,0 20,-7 20,-15l0 -18c0,-8 -9,-15 -20,-15l-75 0 0 -221c-11,2 -21,3 -32,3z"/>
     <path class="fil1" d="M1484 708c2,-10 3,-19 4,-29 0,-2 0,-4 0,-7 1,-33 -5,-66 -17,-95 -13,-38 -30,-72 -35,-100 -11,-58 -3,-102 -3,-102l33 -156 -171 -38 -33 157c0,0 -10,49 -54,90 -39,36 -105,88 -130,167 -3,8 -5,16 -7,25l-5 22 138 36 -7 31 287 0 0 0z"/>
     <path class="fil1" d="M1324 1206c4,3 8,5 11,8 4,3 8,5 12,8 47,27 99,43 158,43 18,0 36,-1 55,-4 2,0 4,0 6,0 3,0 6,0 8,1l55 -360c-8,2 -17,4 -25,4l-133 0 -14 0 -14 0 -432 0 -14 0 -14 0 -97 0 -30 0 -142 0c-8,0 -16,-1 -23,-3l16 113 36 257 5 38 5 33 17 122 771 0 20 -134c-19,2 -37,4 -55,4 -86,0 -164,-26 -229,-74 -4,-3 -9,-6 -13,-10 -4,-3 -8,-7 -12,-10 -43,-36 -80,-82 -109,-136 -86,-4 -85,-142 4,-142 61,0 80,66 58,109 31,55 71,101 118,135z"/>
     <polygon class="fil1" points="1526,1575 788,1575 793,1611 799,1653 799,1656 1514,1656 "/>
     <path class="fil1" d="M1500 762l-14 0 -14 0 -432 0 -14 0 -14 0 -124 0 -174 0c-19,0 -35,13 -40,31 -1,4 -2,9 -2,13 0,15 7,28 17,36 7,5 16,9 25,9l143 0 30 0 107 0 14 0 14 0 432 0 14 0 14 0 122 0c9,0 18,-3 25,-9 11,-8 17,-21 17,-36 0,-24 -19,-44 -42,-44l-104 0 0 0z"/>
     <polygon class="fil1" points="1338,49 1325,142 1323,155 1322,159 1456,189 1457,185 1462,172 1493,86 "/>
    </g>
   </g>
   <g>
   </g>
   <g>
   </g>
   <g>
   </g>
   <g>
   </g>
   <g>
   </g>
   <g>
   </g>
   <g>
   </g>
   <g>
   </g>
   <g>
   </g>
   <g>
   </g>
   <g>
   </g>
   <g>
   </g>
   <g>
   </g>
   <g>
   </g>
   <g>
   </g>
  </g>
 </g>
</svg>
