<?xml version="1.0" encoding="UTF-8"?>
<!DOCTYPE svg PUBLIC "-//W3C//DTD SVG 1.1//EN" "http://www.w3.org/Graphics/SVG/1.1/DTD/svg11.dtd">
<!-- Creator: CorelDRAW X6 -->
<svg xmlns="http://www.w3.org/2000/svg" xml:space="preserve" width="1.70666in" height="1.70666in" version="1.1" style="shape-rendering:geometricPrecision; text-rendering:geometricPrecision; image-rendering:optimizeQuality; fill-rule:evenodd; clip-rule:evenodd"
viewBox="0 0 1707 1707"
 xmlns:xlink="http://www.w3.org/1999/xlink">
 <defs>
  <style type="text/css">
   <![CDATA[
    .fil0 {fill:none}
    .fil1 {fill:#07BCBD}
   ]]>
  </style>
 </defs>
 <g id="Layer_x0020_1">
  <metadata id="CorelCorpID_0Corel-Layer"/>
  <rect class="fil0" width="1707" height="1707"/>
  <g id="_011-newspaper.svg">
   <g>
    <path class="fil1" d="M1627 60l-1150 0c-14,0 -25,11 -25,25l0 100 -186 0c-7,0 -14,3 -19,9 -5,5 -7,13 -6,20l10 72 -172 0c-8,0 -15,4 -20,10 -5,6 -6,14 -4,22l382 1311c3,11 13,18 24,18 2,0 1165,0 1165,0 14,0 25,-11 25,-25l0 -1537c0,-14 -11,-25 -25,-25zm-1175 176l0 1165 -158 -1165 158 0 0 0zm-195 101l125 927 -270 -927 145 0zm1344 1261l-1099 0 0 -1487 1099 0 0 1487 0 0zm-660 -1289l-400 0 0 -113 400 0 0 113 0 0zm622 0l-400 0 0 -113 400 0 0 113 0 0zm-596 -57c0,-46 38,-84 84,-84 46,0 84,38 84,84 0,47 -38,84 -84,84 -46,0 -84,-38 -84,-84zm537 613l-340 0 0 -382 340 0 0 382 0 0zm-503 -326l-418 0 0 -42 418 0 0 42zm-418 119l418 0 0 42 -418 0 0 -42zm5 165l418 0 0 42 -418 0 0 -42zm-5 166l922 0 0 42 -922 0 0 -42zm0 165l922 0 0 42 -922 0 0 -42zm0 163l922 0 0 42 -922 0 0 -42z"/>
   </g>
   <g>
   </g>
   <g>
   </g>
   <g>
   </g>
   <g>
   </g>
   <g>
   </g>
   <g>
   </g>
   <g>
   </g>
   <g>
   </g>
   <g>
   </g>
   <g>
   </g>
   <g>
   </g>
   <g>
   </g>
   <g>
   </g>
   <g>
   </g>
   <g>
   </g>
  </g>
 </g>
</svg>
