<?xml version="1.0" encoding="UTF-8"?>
<!DOCTYPE svg PUBLIC "-//W3C//DTD SVG 1.1//EN" "http://www.w3.org/Graphics/SVG/1.1/DTD/svg11.dtd">
<!-- Creator: CorelDRAW X6 -->
<svg xmlns="http://www.w3.org/2000/svg" xml:space="preserve" width="1.70666in" height="1.70666in" version="1.1" style="shape-rendering:geometricPrecision; text-rendering:geometricPrecision; image-rendering:optimizeQuality; fill-rule:evenodd; clip-rule:evenodd"
viewBox="0 0 1707 1707"
 xmlns:xlink="http://www.w3.org/1999/xlink">
 <defs>
  <style type="text/css">
   <![CDATA[
    .fil0 {fill:none}
    .fil1 {fill:#07BCBD}
   ]]>
  </style>
 </defs>
 <g id="Layer_x0020_1">
  <metadata id="CorelCorpID_0Corel-Layer"/>
  <rect class="fil0" width="1707" height="1707"/>
  <path id="_012-bag.svg" class="fil1" d="M1390 98c-4,-13 -16,-21 -29,-19l-220 32c-13,2 -23,13 -23,26l0 308c0,59 -48,107 -107,107l-315 0c-59,0 -107,-48 -107,-107l0 -308c0,-13 -10,-24 -23,-26l-220 -32c-13,-2 -26,6 -29,19 -124,405 -173,864 -147,1364 5,93 81,166 174,166l1018 0c93,0 170,-73 174,-166 26,-501 -23,-960 -147,-1364zm94 1361c-3,65 -56,115 -121,116l-1018 0c-65,0 -118,-51 -121,-116 -25,-485 21,-931 138,-1324l174 26 0 285c0,88 72,160 160,160l315 0c88,0 160,-72 160,-160l0 -285 174 -26c117,393 164,839 138,1324l0 0zm-627 -456l74 -109c22,-33 14,-78 -19,-100l-109 -74c-29,-20 -68,-16 -92,9 -25,25 -28,64 -8,92 -123,62 -201,189 -202,327 0,40 32,72 72,72 40,0 72,-32 72,-72 0,-66 29,-129 80,-171 6,28 28,51 57,56 28,6 58,-6 74,-30l0 0zm-70 -25c-9,-6 -11,-18 -5,-26l12 -18c7,-10 6,-23 -1,-32 -7,-9 -20,-12 -31,-8 -102,43 -169,143 -169,253 0,11 -9,19 -19,19 -11,0 -19,-9 -19,-19 0,-132 83,-250 207,-294 9,-3 16,-12 17,-22 1,-10 -3,-20 -11,-25l-16 -11c-7,-5 -10,-13 -7,-21 2,-8 10,-13 18,-13 4,0 8,1 11,3l109 74c9,6 11,18 5,26l-74 109c-6,8 -18,11 -26,5l0 0zm348 -9c-40,0 -72,32 -72,72 0,66 -29,128 -80,171 -6,-28 -28,-51 -57,-56 -28,-6 -58,6 -74,30l-74 109c-22,33 -14,78 19,100l109 74c29,20 68,16 92,-9 25,-25 28,-64 8,-92 123,-62 201,-189 202,-327 0,-40 -32,-72 -72,-72l0 0zm-188 367c-9,3 -16,12 -17,22 -1,10 3,20 11,25l16 11c6,4 9,10 8,17 0,7 -5,13 -11,16 -6,3 -13,2 -19,-2l-109 -74c-9,-6 -11,-18 -5,-26l74 -109c6,-8 18,-11 26,-5 9,6 11,18 5,26l-12 18c-7,10 -6,23 1,32 7,9 20,12 31,8 102,-43 169,-143 169,-254 0,-11 9,-19 19,-19 11,0 19,9 19,19 0,132 -83,250 -207,295l0 0zm0 0z"/>
 </g>
</svg>
