<?xml version="1.0" encoding="UTF-8"?>
<!DOCTYPE svg PUBLIC "-//W3C//DTD SVG 1.1//EN" "http://www.w3.org/Graphics/SVG/1.1/DTD/svg11.dtd">
<!-- Creator: CorelDRAW X6 -->
<svg xmlns="http://www.w3.org/2000/svg" xml:space="preserve" width="1.70666in" height="1.70666in" version="1.1" style="shape-rendering:geometricPrecision; text-rendering:geometricPrecision; image-rendering:optimizeQuality; fill-rule:evenodd; clip-rule:evenodd"
viewBox="0 0 1707 1707"
 xmlns:xlink="http://www.w3.org/1999/xlink">
 <defs>
  <style type="text/css">
   <![CDATA[
    .fil0 {fill:none}
    .fil1 {fill:#07BCBD}
   ]]>
  </style>
 </defs>
 <g id="Layer_x0020_1">
  <metadata id="CorelCorpID_0Corel-Layer"/>
  <rect class="fil0" width="1707" height="1707"/>
  <g id="_013-soda.svg">
   <path class="fil1" d="M544 1619c2,27 24,48 51,48l518 0c27,0 49,-21 51,-48l19 -303 -657 0 19 303zm482 -196c0,-28 23,-51 51,-51 28,0 51,23 51,51l0 18c0,28 -23,51 -51,51 -28,0 -51,-23 -51,-51l0 -18zm-113 129c0,-28 23,-51 51,-51 28,0 51,23 51,51l0 18c0,28 -23,51 -51,51 -28,0 -51,-23 -51,-51l0 -18zm-110 -129c0,-28 23,-51 51,-51 28,0 51,23 51,51l0 18c0,28 -23,51 -51,51 -28,0 -51,-23 -51,-51l0 -18zm-110 129c0,-28 23,-51 51,-51 28,0 51,23 51,51l0 18c0,28 -23,51 -51,51 -28,0 -51,-23 -51,-51l0 -18zm-113 -129c0,-28 23,-51 51,-51 28,0 51,23 51,51l0 18c0,28 -23,51 -51,51 -28,0 -51,-23 -51,-51l0 -18zm0 0z"/>
   <path class="fil1" d="M486 675l735 0 17 -273 -769 0 17 273zm0 0z"/>
   <path class="fil1" d="M1353 40l-11 0c-28,0 -51,23 -51,51 0,28 23,51 51,51l11 0c17,0 30,14 30,30 0,16 -13,30 -30,30 -27,0 -942,0 -1080,0 -28,0 -51,23 -51,51 0,28 23,51 51,51l1080 0c73,0 131,-59 131,-131 0,-72 -59,-131 -131,-131zm0 0z"/>
   <path class="fil1" d="M519 1215l669 0c25,-402 19,-310 27,-438l-723 0 27 438zm177 -288l315 0c28,0 51,23 51,51 0,28 -23,51 -51,51l-315 0c-28,0 -51,-23 -51,-51 0,-28 23,-51 51,-51zm0 0z"/>
  </g>
 </g>
</svg>
