<?xml version="1.0" encoding="UTF-8"?>
<!DOCTYPE svg PUBLIC "-//W3C//DTD SVG 1.1//EN" "http://www.w3.org/Graphics/SVG/1.1/DTD/svg11.dtd">
<!-- Creator: CorelDRAW X6 -->
<svg xmlns="http://www.w3.org/2000/svg" xml:space="preserve" width="1.70666in" height="1.70666in" version="1.1" style="shape-rendering:geometricPrecision; text-rendering:geometricPrecision; image-rendering:optimizeQuality; fill-rule:evenodd; clip-rule:evenodd"
viewBox="0 0 1707 1707"
 xmlns:xlink="http://www.w3.org/1999/xlink">
 <defs>
  <style type="text/css">
   <![CDATA[
    .fil0 {fill:none}
    .fil1 {fill:#07BCBD}
   ]]>
  </style>
 </defs>
 <g id="Layer_x0020_1">
  <metadata id="CorelCorpID_0Corel-Layer"/>
  <rect class="fil0" width="1707" height="1707"/>
  <g id="_328390704">
   <path class="fil1" d="M1284 160c-28,-74 -213,-131 -438,-131 -244,0 -442,67 -442,150 0,0 0,0 0,1 -28,34 -44,77 -44,124l0 1103c0,85 53,168 128,201 65,41 205,69 368,69 175,0 325,-33 382,-79 64,-38 108,-114 108,-191l0 -1103c0,-57 -24,-108 -63,-144zm-440 -103c216,0 391,54 391,120 0,66 -175,120 -391,120 -216,0 -391,-54 -391,-120 0,-66 175,-120 391,-120zm-410 309c0,-14 11,-25 25,-25 14,0 25,11 25,25l0 784c0,14 -11,25 -25,25 -14,0 -25,-11 -25,-25l0 -784zm821 1145c-11,5 -25,11 -40,19 -16,7 -34,13 -54,20 -10,3 -21,7 -31,11 -11,4 -22,6 -34,9 -12,3 -24,6 -36,9 -6,1 -13,3 -19,4 -6,1 -13,2 -20,3 -13,2 -27,4 -40,6 -7,1 -14,2 -20,3 -7,0 -14,1 -21,1 -28,2 -56,4 -85,3 -14,0 -28,0 -43,-1 -14,-1 -28,-2 -42,-3 -28,-1 -55,-7 -81,-10 -13,-2 -26,-5 -38,-7 -12,-3 -25,-5 -37,-8 -24,-6 -46,-12 -66,-19 -20,-6 -38,-13 -54,-20 -16,-6 -30,-13 -41,-18 -11,-5 -20,-10 -25,-13 -6,-3 -9,-5 -9,-5 0,0 3,1 10,3 6,2 15,5 27,8 12,4 26,7 42,12 17,4 35,9 55,13 20,5 43,8 66,13 12,2 24,4 36,6 12,2 25,4 38,5 26,3 52,6 80,7 14,1 27,2 41,2 14,0 28,0 41,0 28,1 55,-1 82,-2 7,0 14,-1 20,-1 7,-1 13,-1 20,-2 13,-1 26,-3 39,-4 6,-1 13,-1 19,-2 6,-1 12,-2 19,-3 12,-2 24,-4 36,-6 24,-3 45,-9 66,-14 10,-2 20,-5 29,-7 9,-2 18,-4 26,-7 16,-5 31,-9 42,-13 24,-7 37,-10 37,-10 0,0 -13,6 -35,17zm-423 -1228l56 0c67,0 91,-28 91,-52 0,-24 -24,-52 -91,-52l-18 0 69 -90c-22,-24 -133,-27 -159,-4l61 93 -9 0c-80,0 -86,40 -86,52 0,12 6,52 86,52zm0 -84l22 0 1 1 1 -1 33 0c42,0 71,13 71,32 0,19 -29,32 -71,32l-56 0c-41,0 -66,-12 -66,-32 0,-20 25,-32 66,-32z"/>
  </g>
  <g id="_328390512">
  </g>
  <g id="_328390320">
  </g>
  <g id="_328390128">
  </g>
  <g id="_328389936">
  </g>
  <g id="_328389744">
  </g>
  <g id="_328389552">
  </g>
  <g id="_328389360">
  </g>
  <g id="_328389168">
  </g>
  <g id="_328388976">
  </g>
  <g id="_328388784">
  </g>
  <g id="_328388592">
  </g>
  <g id="_328388400">
  </g>
  <g id="_328388208">
  </g>
  <g id="_328388016">
  </g>
  <g id="_328387824">
  </g>
 </g>
</svg>
